<?xml version="1.0" encoding="UTF-8"?>
<svg id="Layer_1" data-name="Layer 1" xmlns="http://www.w3.org/2000/svg" width="500" height="500" viewBox="0 0 500 500">
  <rect x="19.6" y="16.16" width="454.63" height="461.2" fill="#d9e021"/>
  <path d="M449.08,1.87H50.92C23.88,1.87,1.87,23.88,1.87,50.92v398.16c0,27.05,22,49.05,49.05,49.05h398.16c27.05,0,49.05-22,49.05-49.05V50.92c0-27.05-22-49.05-49.05-49.05ZM96.66,25.44h70.41c-8.08,11.44-16.4,22.88-23.54,34.83-2.35,3.94-16.99,41-22.19,34.89,2.2-25.34-7.77-50.82-24.68-69.72ZM85.65,52.13c16.62,21.16,11.23,49.24,7.88,73.9-6.37,6.8-26.03-32.85-27.05-39.34-2.06-13.03,3.66-54.32,19.17-34.56ZM50.92,25.44h3.33c-14.33,24.05-23.12,50.77-14.84,79.12,2.87,9.82,8.42,15.47,10.9,24.57-16.35-4.98-20.8-25.19-24.87-38.81v-39.41c0-14.05,11.43-25.48,25.48-25.48ZM474.56,449.08c0,14.05-11.43,25.48-25.48,25.48H50.92c-12.56,0-23.02-9.14-25.1-21.12,13.41-22.43,27.79-44.07,52.29-52.63-8.89-19.62-23.52-32.63-30.98-53.87-7.43-21.15-10.22-44.19-9.11-66.5,6.22,1.19,5.03,6.54,6.14,10.81,12.96,49.92,20.24,71.06,61.69,105.02,37.38,30.61,69.53,29.1,111.81,42.52,34.49,10.95,42.5,31.51,82.65,19.19,4.08-1.25,17.83-3.48,15.42-9.21-2.44-5.8-21.23-18.54-27.63-21.78l-37.14-13.74c20.48-1.24,42.16,5.46,59.66,15.92,14.48,8.65,17.55,22.59,39.98,17.36,13.75-3.2,30.88-41.99,34.04-55.49,3.83-16.36-1.46-34.35,1.35-44.87,2.19-8.2,21.71-29.5,27.93-40.08,36.28-61.71,50.57-166.81,25.6-234.38-1.14-3.09-1.97-9.63-6.47-4.33-2.23,2.62-10.57,55.16-14.57,67.28-15.27,46.32-52.29,107-102.72,117.97,4.08-19.87,11.44-43.13,12.29-63.32.34-8.08-1.57-39.2-4.53-44.79-3.06-5.76-5.04-.91-7.31,2.05-4.97,6.48-8,15.29-14.31,22.74-67.43,79.72-98,12.4-137.24-47.94,31.35-19.28,36.7-67.43,14.46-95.94h269.94c14.05,0,25.48,11.43,25.48,25.48v398.16ZM190.95,258.82c-2.63-5.07-12.39-6.07-14.06-12.32,27.65,3.26,35.42,41.07,64.8,37.05l-32.59,9.16c-25.51,1.11-14.07-26.04-18.15-33.9ZM306.57,374.61c14.44-20.33,47.35,9.37,30.85,23.16-2.95-17.16-19.76-15.44-30.85-23.16Z" fill="#1a1a1a"/>
</svg>